# xmcd
#
# Track frame offsets:
#	150
#	9418
#	17381
#	27835
#	34864
#	46147
#	51633
#	58606
#	67640
#	74493
#	86354
#	92619
#	104195
#	114700
#	124663
#	135309
#	143199
#	151555
#	159432
#	168010
#	177319
#	185393
#	193854
#	203133
#	213048
#
# Disc length: 2958 seconds
# Revision: 0
# Processed by: cddbd v1.5.2PL0 Copyright (c) Steve Scherf et al.
# Submitted via: dBpowerAMP V12.0
#
DISCID=470b8c19
DTITLE=Various Artist - Appalachian Mountain Gospel
DYEAR=2008
DGENRE=Country
TTITLE0=Red Smiley - Take Me In Your Life Boat
TTITLE1=Hylo Brown - 	No Hidin' Place Down Here
TTITLE2=Lillie Mae And The Gospel Aires - 	I Like To Hear Them Preach It
TTITLE3=Red White - 	Crying Holy Unto The Lord
TTITLE4=Don Reno and Bill Harrell - 	Great Speckled Bird
TTITLE5=Lee Moore - 	Keep On The Sunnyside
TTITLE6=Red Smiley - 	A Beautiful Life
TTITLE7=Hylo Brown - Where The Soul Of Man Never Dies
TTITLE8=J.D. Jarvis - Get In Line Brother
TTITLE9=Mac Martin - 	Is She Praying There
TTITLE10=Jim Greer - 	Golden Slippers
TTITLE11=Red Smiley - 	Somebody Touch Me
TTITLE12=The Blue Ridge Mountaineers - 	Preaching, Praying, Singing
TTITLE13=J.D. Jarvis	 - 	Uncloudy Day
TTITLE14=Hylo Brown - Take My Hand Precious Lord
TTITLE15=Red White - 	Leaning On The Everlasting Arms
TTITLE16=Jim Greer - 	Paul and Silas
TTITLE17=The Happy Land Gospel Singers - 	If I Could Here My Mother Pray Again
TTITLE18=J.D. Jarvis - 	Lonely Tombs
TTITLE19=Hylo Brown - 	Wayfaring Stranger
TTITLE20=Raymond Fairchild - 	I Am A Pilgrim
TTITLE21=Red Smiley - 	Let The Church Roll On
TTITLE22=The Happy Land Gospel Singers - 	I Feel Like Traveling On
TTITLE23=Hylo Brown - 	Walking Cane
TTITLE24=Earl Taylor and Jim Mccall - I'm Getting Ready To Go
EXTD=
EXTT0=
EXTT1=
EXTT2=
EXTT3=
EXTT4=
EXTT5=
EXTT6=
EXTT7=
EXTT8=
EXTT9=
EXTT10=
EXTT11=
EXTT12=
EXTT13=
EXTT14=
EXTT15=
EXTT16=
EXTT17=
EXTT18=
EXTT19=
EXTT20=
EXTT21=
EXTT22=
EXTT23=
EXTT24=
PLAYORDER=
